STARTFONT 2.1
COMMENT
COMMENT Converted from OpenType font "manrope-medium.otf" by "otf2bdf 3.0".
COMMENT
FONT -FreeType-Manrope Medium-Medium-R-Normal--24-170-100-100-P-109-ISO10646-1
SIZE 17 100 100
FONTBOUNDINGBOX 22 30 0 -6
STARTPROPERTIES 19
FOUNDRY "FreeType"
FAMILY_NAME "Manrope Medium"
WEIGHT_NAME "Medium"
SLANT "R"
SETWIDTH_NAME "Normal"
ADD_STYLE_NAME ""
PIXEL_SIZE 24
POINT_SIZE 170
RESOLUTION_X 100
RESOLUTION_Y 100
SPACING "P"
AVERAGE_WIDTH 109
CHARSET_REGISTRY "ISO10646"
CHARSET_ENCODING "1"
FONT_ASCENT 25
FONT_DESCENT 7
COPYRIGHT "Copyright 2019-2021 The Manrope Project Authors (https://github.com/sharanda/manrope)"
_OTF_FONTFILE "manrope-medium.otf"
_OTF_PSNAME "Manrope-Medium"
ENDPROPERTIES
CHARS 191
STARTCHAR 0020
ENCODING 32
SWIDTH 211 0
DWIDTH 5 0
BBX 0 0 0 0
BITMAP
ENDCHAR
STARTCHAR 0021
ENCODING 33
SWIDTH 338 0
DWIDTH 8 0
BBX 2 17 3 0
BITMAP
C0
C0
C0
C0
C0
C0
C0
C0
C0
C0
C0
C0
C0
00
00
C0
C0
ENDCHAR
STARTCHAR 0022
ENCODING 34
SWIDTH 423 0
DWIDTH 10 0
BBX 6 4 1 13
BITMAP
EC
EC
EC
EC
ENDCHAR
STARTCHAR 0023
ENCODING 35
SWIDTH 931 0
DWIDTH 22 0
BBX 18 17 2 0
BITMAP
018600
018600
018C00
030C00
030C00
7FFFC0
7FFFC0
061800
061800
063000
FFFF80
FFFF80
0C3000
0C6000
186000
186000
186000
ENDCHAR
STARTCHAR 0024
ENCODING 36
SWIDTH 592 0
DWIDTH 14 0
BBX 12 21 1 -2
BITMAP
0600
0600
1F80
3FE0
70E0
6070
E030
6000
7000
3F00
0FC0
01F0
0030
0030
C030
E030
7070
3FE0
1F80
0600
0600
ENDCHAR
STARTCHAR 0025
ENCODING 37
SWIDTH 889 0
DWIDTH 21 0
BBX 19 17 1 0
BITMAP
1E0080
7F01C0
638380
C18700
C18E00
639C00
7F3800
1E7000
00E000
01C780
039FC0
0718E0
0E3060
1C3060
3818E0
701FC0
200780
ENDCHAR
STARTCHAR 0026
ENCODING 38
SWIDTH 677 0
DWIDTH 16 0
BBX 14 17 1 0
BITMAP
0F80
3FC0
30E0
6000
6000
6000
3000
3800
3C00
7630
E3B0
C1F0
C0F0
E070
70F8
3FFC
1F88
ENDCHAR
STARTCHAR 0027
ENCODING 39
SWIDTH 211 0
DWIDTH 5 0
BBX 3 4 1 13
BITMAP
E0
E0
E0
E0
ENDCHAR
STARTCHAR 0028
ENCODING 40
SWIDTH 423 0
DWIDTH 10 0
BBX 6 24 3 -4
BITMAP
08
0C
18
38
30
70
60
60
60
C0
C0
C0
C0
C0
C0
60
60
60
60
30
30
18
1C
0C
ENDCHAR
STARTCHAR 0029
ENCODING 41
SWIDTH 423 0
DWIDTH 10 0
BBX 6 24 1 -4
BITMAP
40
E0
60
30
30
18
18
18
0C
0C
0C
0C
0C
0C
0C
0C
18
18
18
30
30
60
E0
40
ENDCHAR
STARTCHAR 002A
ENCODING 42
SWIDTH 465 0
DWIDTH 11 0
BBX 8 8 1 9
BITMAP
18
18
DB
FF
3C
3C
66
24
ENDCHAR
STARTCHAR 002B
ENCODING 43
SWIDTH 592 0
DWIDTH 14 0
BBX 11 11 1 3
BITMAP
0600
0600
0600
0600
FFE0
FFE0
0600
0600
0600
0600
0600
ENDCHAR
STARTCHAR 002C
ENCODING 44
SWIDTH 296 0
DWIDTH 7 0
BBX 3 6 1 -3
BITMAP
E0
E0
E0
20
60
C0
ENDCHAR
STARTCHAR 002D
ENCODING 45
SWIDTH 423 0
DWIDTH 10 0
BBX 8 2 1 6
BITMAP
FF
FF
ENDCHAR
STARTCHAR 002E
ENCODING 46
SWIDTH 254 0
DWIDTH 6 0
BBX 2 2 2 0
BITMAP
C0
C0
ENDCHAR
STARTCHAR 002F
ENCODING 47
SWIDTH 423 0
DWIDTH 10 0
BBX 6 17 2 0
BITMAP
0C
0C
18
18
18
38
30
30
30
70
60
60
60
C0
C0
C0
C0
ENDCHAR
STARTCHAR 0030
ENCODING 48
SWIDTH 635 0
DWIDTH 15 0
BBX 11 17 2 0
BITMAP
1F00
7F80
F1C0
C0E0
C060
C060
C060
C060
C060
C060
C060
C060
C060
C0E0
F1C0
7F80
1F00
ENDCHAR
STARTCHAR 0031
ENCODING 49
SWIDTH 423 0
DWIDTH 10 0
BBX 6 17 1 0
BITMAP
1C
7C
EC
CC
0C
0C
0C
0C
0C
0C
0C
0C
0C
0C
0C
0C
0C
ENDCHAR
STARTCHAR 0032
ENCODING 50
SWIDTH 592 0
DWIDTH 14 0
BBX 11 17 1 0
BITMAP
1F00
3FC0
70E0
6060
E060
0060
0060
0060
00E0
01C0
0780
0E00
1C00
3800
7000
FFE0
FFE0
ENDCHAR
STARTCHAR 0033
ENCODING 51
SWIDTH 550 0
DWIDTH 13 0
BBX 11 17 1 0
BITMAP
7FE0
7FE0
01C0
0380
0700
0E00
1E00
1F80
01C0
00E0
0060
0060
0060
C0C0
61C0
7F80
1F00
ENDCHAR
STARTCHAR 0034
ENCODING 52
SWIDTH 592 0
DWIDTH 14 0
BBX 12 17 1 0
BITMAP
0300
0600
0600
0E00
0C00
1C00
1800
38C0
30C0
70C0
60C0
E0C0
FFF0
FFF0
00C0
00C0
00C0
ENDCHAR
STARTCHAR 0035
ENCODING 53
SWIDTH 592 0
DWIDTH 14 0
BBX 12 17 1 0
BITMAP
7FC0
7FC0
6000
6000
6000
6000
6F00
7FC0
70E0
0060
0060
0070
0060
E060
71E0
3FC0
1F00
ENDCHAR
STARTCHAR 0036
ENCODING 54
SWIDTH 635 0
DWIDTH 15 0
BBX 11 17 2 0
BITMAP
1F00
7FC0
70C0
E000
C000
C000
CF00
FF80
F1C0
C0E0
C060
C060
C060
C0E0
71C0
7F80
1F00
ENDCHAR
STARTCHAR 0037
ENCODING 55
SWIDTH 508 0
DWIDTH 12 0
BBX 10 17 1 0
BITMAP
FFC0
FFC0
01C0
0180
0180
0380
0300
0700
0600
0600
0C00
0C00
1C00
1800
1800
3000
3000
ENDCHAR
STARTCHAR 0038
ENCODING 56
SWIDTH 592 0
DWIDTH 14 0
BBX 12 17 1 0
BITMAP
1F00
3FC0
70E0
6060
6060
6060
70E0
3FC0
3FC0
70E0
6060
E070
E060
6060
70E0
3FC0
1F00
ENDCHAR
STARTCHAR 0039
ENCODING 57
SWIDTH 635 0
DWIDTH 15 0
BBX 12 17 1 0
BITMAP
0F80
3FC0
70E0
6070
E030
E030
E030
6070
70F0
3FF0
0F30
0030
0030
0070
30E0
3FC0
0F80
ENDCHAR
STARTCHAR 003A
ENCODING 58
SWIDTH 296 0
DWIDTH 7 0
BBX 2 9 3 2
BITMAP
C0
C0
00
00
00
00
00
C0
C0
ENDCHAR
STARTCHAR 003B
ENCODING 59
SWIDTH 338 0
DWIDTH 8 0
BBX 2 16 3 -3
BITMAP
C0
C0
00
00
00
00
00
00
00
00
C0
C0
C0
40
40
80
ENDCHAR
STARTCHAR 003C
ENCODING 60
SWIDTH 635 0
DWIDTH 15 0
BBX 7 11 3 2
BITMAP
04
0E
1C
38
70
E0
70
38
1C
0E
06
ENDCHAR
STARTCHAR 003D
ENCODING 61
SWIDTH 762 0
DWIDTH 18 0
BBX 12 7 3 5
BITMAP
FFF0
FFF0
0000
0000
0000
FFF0
FFF0
ENDCHAR
STARTCHAR 003E
ENCODING 62
SWIDTH 635 0
DWIDTH 15 0
BBX 6 11 5 2
BITMAP
80
C0
60
30
18
0C
18
30
60
C0
80
ENDCHAR
STARTCHAR 003F
ENCODING 63
SWIDTH 550 0
DWIDTH 13 0
BBX 10 17 1 0
BITMAP
1F00
7F80
61C0
E0C0
C0C0
00C0
00C0
0380
0700
0E00
0C00
0C00
0000
0000
0C00
0C00
0C00
ENDCHAR
STARTCHAR 0040
ENCODING 64
SWIDTH 889 0
DWIDTH 21 0
BBX 18 18 2 -3
BITMAP
03F000
1FFC00
380E00
700300
600180
C3D180
C7F180
C630C0
C410C0
C61080
C63180
C3FF80
61CF00
600000
300000
1C1000
0FF800
01E000
ENDCHAR
STARTCHAR 0041
ENCODING 65
SWIDTH 635 0
DWIDTH 15 0
BBX 14 17 1 0
BITMAP
0700
0780
0D80
0D80
0DC0
1CC0
18C0
18E0
3060
3060
3070
7FF0
7FF0
6038
C018
C018
C01C
ENDCHAR
STARTCHAR 0042
ENCODING 66
SWIDTH 635 0
DWIDTH 15 0
BBX 12 17 2 0
BITMAP
FF80
FFC0
C0E0
C060
C060
C060
C0E0
FFC0
FFC0
C0E0
C070
C030
C030
C070
C0E0
FFE0
FF80
ENDCHAR
STARTCHAR 0043
ENCODING 67
SWIDTH 720 0
DWIDTH 17 0
BBX 15 17 1 0
BITMAP
07E0
1FF8
383C
700C
E00E
C006
C000
C000
C000
C000
C000
C006
E00E
700C
383C
1FF8
07E0
ENDCHAR
STARTCHAR 0044
ENCODING 68
SWIDTH 677 0
DWIDTH 16 0
BBX 13 17 2 0
BITMAP
FF80
FFC0
C0E0
C070
C030
C038
C018
C018
C018
C018
C018
C038
C030
C070
C0E0
FFC0
FF80
ENDCHAR
STARTCHAR 0045
ENCODING 69
SWIDTH 592 0
DWIDTH 14 0
BBX 10 17 2 0
BITMAP
FFC0
FFC0
C000
C000
C000
C000
C000
FF80
FF80
C000
C000
C000
C000
C000
C000
FFC0
FFC0
ENDCHAR
STARTCHAR 0046
ENCODING 70
SWIDTH 508 0
DWIDTH 12 0
BBX 10 17 2 0
BITMAP
FFC0
FFC0
C000
C000
C000
C000
C000
FF00
FF00
C000
C000
C000
C000
C000
C000
C000
C000
ENDCHAR
STARTCHAR 0047
ENCODING 71
SWIDTH 720 0
DWIDTH 17 0
BBX 15 17 1 0
BITMAP
07C0
1FF0
3838
701C
E00C
C000
C000
C000
C07E
C07E
C006
C006
E00E
700C
3838
1FF0
07E0
ENDCHAR
STARTCHAR 0048
ENCODING 72
SWIDTH 677 0
DWIDTH 16 0
BBX 13 17 2 0
BITMAP
C018
C018
C018
C018
C018
C018
C018
FFF8
FFF8
C018
C018
C018
C018
C018
C018
C018
C018
ENDCHAR
STARTCHAR 0049
ENCODING 73
SWIDTH 254 0
DWIDTH 6 0
BBX 2 17 2 0
BITMAP
C0
C0
C0
C0
C0
C0
C0
C0
C0
C0
C0
C0
C0
C0
C0
C0
C0
ENDCHAR
STARTCHAR 004A
ENCODING 74
SWIDTH 465 0
DWIDTH 11 0
BBX 9 17 0 0
BITMAP
0180
0180
0180
0180
0180
0180
0180
0180
0180
0180
0180
0180
0180
C180
E380
7F00
3E00
ENDCHAR
STARTCHAR 004B
ENCODING 75
SWIDTH 592 0
DWIDTH 14 0
BBX 12 17 2 0
BITMAP
C060
C0C0
C180
C380
C700
CE00
DC00
F800
F000
D800
DC00
CE00
C700
C380
C1C0
C0E0
C070
ENDCHAR
STARTCHAR 004C
ENCODING 76
SWIDTH 508 0
DWIDTH 12 0
BBX 10 17 2 0
BITMAP
C000
C000
C000
C000
C000
C000
C000
C000
C000
C000
C000
C000
C000
C000
C000
FFC0
FFC0
ENDCHAR
STARTCHAR 004D
ENCODING 77
SWIDTH 847 0
DWIDTH 20 0
BBX 16 17 2 0
BITMAP
C003
C003
E007
E007
F00F
F00F
F81B
D81B
DC3B
CC33
CE73
C663
C6E3
C3C3
C3C3
C183
C183
ENDCHAR
STARTCHAR 004E
ENCODING 78
SWIDTH 677 0
DWIDTH 16 0
BBX 13 17 2 0
BITMAP
C018
E018
E018
F018
F818
D818
CC18
CE18
C618
C318
C398
C198
C0D8
C0F8
C078
C038
C038
ENDCHAR
STARTCHAR 004F
ENCODING 79
SWIDTH 720 0
DWIDTH 17 0
BBX 16 17 1 0
BITMAP
07E0
1FF8
383C
700C
E00E
C006
C006
C007
C007
C007
C006
C006
E00E
700C
383C
1FF8
07E0
ENDCHAR
STARTCHAR 0050
ENCODING 80
SWIDTH 635 0
DWIDTH 15 0
BBX 12 17 2 0
BITMAP
FF80
FFC0
C0E0
C070
C030
C030
C030
C070
C0E0
FFC0
FF80
C000
C000
C000
C000
C000
C000
ENDCHAR
STARTCHAR 0051
ENCODING 81
SWIDTH 720 0
DWIDTH 17 0
BBX 16 17 1 0
BITMAP
07E0
1FF8
383C
700C
E00E
C006
C006
C007
C007
C007
C006
C026
E07E
703C
383C
1FFE
07E4
ENDCHAR
STARTCHAR 0052
ENCODING 82
SWIDTH 635 0
DWIDTH 15 0
BBX 12 17 2 0
BITMAP
FF80
FFC0
C0E0
C070
C030
C030
C030
C070
C0E0
FFC0
FF80
C180
C1C0
C0C0
C0E0
C060
C070
ENDCHAR
STARTCHAR 0053
ENCODING 83
SWIDTH 635 0
DWIDTH 15 0
BBX 13 17 1 0
BITMAP
0F80
3FE0
7070
6030
E038
6000
7000
3F00
0FE0
01F0
0038
0018
C018
E038
7070
3FE0
0FC0
ENDCHAR
STARTCHAR 0054
ENCODING 84
SWIDTH 592 0
DWIDTH 14 0
BBX 14 17 0 0
BITMAP
FFFC
FFFC
0300
0300
0300
0300
0300
0300
0300
0300
0300
0300
0300
0300
0300
0300
0300
ENDCHAR
STARTCHAR 0055
ENCODING 85
SWIDTH 720 0
DWIDTH 17 0
BBX 13 17 2 0
BITMAP
C018
C018
C018
C018
C018
C018
C018
C018
C018
C018
C018
C018
C038
E030
70F0
3FE0
1F80
ENDCHAR
STARTCHAR 0056
ENCODING 86
SWIDTH 635 0
DWIDTH 15 0
BBX 14 17 0 0
BITMAP
C00C
600C
601C
6018
3018
3038
3030
1830
1870
1860
0C60
0CE0
0EC0
06C0
07C0
0780
0380
ENDCHAR
STARTCHAR 0057
ENCODING 87
SWIDTH 931 0
DWIDTH 22 0
BBX 22 17 0 0
BITMAP
E0300C
60381C
607818
707818
307C18
306C30
30CC30
38CC30
18C670
19C660
1D8660
0D8760
0D83C0
0F03C0
0703C0
0701C0
070180
ENDCHAR
STARTCHAR 0058
ENCODING 88
SWIDTH 635 0
DWIDTH 15 0
BBX 13 17 1 0
BITMAP
C038
E030
7070
30E0
38C0
1DC0
0F80
0F00
0700
0F00
0D80
19C0
38C0
3060
6070
E030
C018
ENDCHAR
STARTCHAR 0059
ENCODING 89
SWIDTH 592 0
DWIDTH 14 0
BBX 13 17 0 0
BITMAP
E018
6038
7030
3070
1860
1CC0
0DC0
0F80
0780
0700
0300
0300
0300
0300
0300
0300
0300
ENDCHAR
STARTCHAR 005A
ENCODING 90
SWIDTH 635 0
DWIDTH 15 0
BBX 13 17 1 0
BITMAP
7FF8
7FF0
0060
00E0
00C0
01C0
0380
0300
0700
0600
0E00
1C00
1800
3800
7000
7FF8
FFF8
ENDCHAR
STARTCHAR 005B
ENCODING 91
SWIDTH 423 0
DWIDTH 10 0
BBX 5 26 3 -5
BITMAP
F8
F8
C0
C0
C0
C0
C0
C0
C0
C0
C0
C0
C0
C0
C0
C0
C0
C0
C0
C0
C0
C0
C0
C0
F8
F8
ENDCHAR
STARTCHAR 005C
ENCODING 92
SWIDTH 423 0
DWIDTH 10 0
BBX 6 17 2 0
BITMAP
C0
C0
C0
C0
60
60
60
70
30
30
30
38
18
18
18
0C
0C
ENDCHAR
STARTCHAR 005D
ENCODING 93
SWIDTH 423 0
DWIDTH 10 0
BBX 4 26 2 -5
BITMAP
F0
F0
10
10
10
10
10
10
10
10
10
10
10
10
10
10
10
10
10
10
10
10
10
10
F0
F0
ENDCHAR
STARTCHAR 005E
ENCODING 94
SWIDTH 677 0
DWIDTH 16 0
BBX 11 7 3 10
BITMAP
0400
0E00
1F00
3380
61C0
C0E0
8040
ENDCHAR
STARTCHAR 005F
ENCODING 95
SWIDTH 677 0
DWIDTH 16 0
BBX 16 2 0 -3
BITMAP
FFFF
FFFF
ENDCHAR
STARTCHAR 0060
ENCODING 96
SWIDTH 508 0
DWIDTH 12 0
BBX 3 4 4 19
BITMAP
C0
40
60
60
ENDCHAR
STARTCHAR 0061
ENCODING 97
SWIDTH 550 0
DWIDTH 13 0
BBX 11 13 1 0
BITMAP
1F00
7FC0
70C0
E060
0060
0FE0
7FE0
F060
C060
C0E0
C1E0
7F60
3E60
ENDCHAR
STARTCHAR 0062
ENCODING 98
SWIDTH 592 0
DWIDTH 14 0
BBX 11 17 2 0
BITMAP
C000
C000
C000
C000
DF00
FF80
E1C0
C0E0
C060
C060
C060
C060
C060
C0E0
E1C0
FF80
DF00
ENDCHAR
STARTCHAR 0063
ENCODING 99
SWIDTH 550 0
DWIDTH 13 0
BBX 11 13 1 0
BITMAP
1F80
3FC0
70E0
E060
C000
C000
C000
C000
C000
E060
70E0
3FC0
1F80
ENDCHAR
STARTCHAR 0064
ENCODING 100
SWIDTH 592 0
DWIDTH 14 0
BBX 12 17 1 0
BITMAP
0070
0070
0070
0070
1F70
3FF0
70F0
E070
C070
C030
C030
C030
C070
E070
70F0
3FB0
1F30
ENDCHAR
STARTCHAR 0065
ENCODING 101
SWIDTH 592 0
DWIDTH 14 0
BBX 12 13 1 0
BITMAP
1F80
3FC0
70E0
E060
C030
FFF0
FFF0
C000
E000
E070
70E0
3FC0
1F80
ENDCHAR
STARTCHAR 0066
ENCODING 102
SWIDTH 381 0
DWIDTH 9 0
BBX 7 17 1 0
BITMAP
1E
3E
30
30
FE
FE
30
30
30
30
30
30
30
30
30
30
30
ENDCHAR
STARTCHAR 0067
ENCODING 103
SWIDTH 592 0
DWIDTH 14 0
BBX 12 19 1 -6
BITMAP
1F30
3FF0
70F0
E070
C070
C030
C030
C030
C070
E070
70F0
3FF0
1F70
0060
0060
2060
70E0
3FC0
1F80
ENDCHAR
STARTCHAR 0068
ENCODING 104
SWIDTH 592 0
DWIDTH 14 0
BBX 11 17 2 0
BITMAP
C000
C000
C000
C000
DF00
FF80
E1C0
C0C0
C0E0
C060
C060
C060
C060
C060
C060
C060
C060
ENDCHAR
STARTCHAR 0069
ENCODING 105
SWIDTH 254 0
DWIDTH 6 0
BBX 2 17 2 0
BITMAP
C0
C0
00
00
C0
C0
C0
C0
C0
C0
C0
C0
C0
C0
C0
C0
C0
ENDCHAR
STARTCHAR 006A
ENCODING 106
SWIDTH 254 0
DWIDTH 6 0
BBX 4 23 0 -6
BITMAP
30
30
00
00
30
30
30
30
30
30
30
30
30
30
30
30
30
30
30
30
30
F0
E0
ENDCHAR
STARTCHAR 006B
ENCODING 107
SWIDTH 508 0
DWIDTH 12 0
BBX 10 17 2 0
BITMAP
C000
C000
C000
C000
C180
C380
C700
CE00
DC00
F800
F000
F800
DC00
CE00
C700
C380
C1C0
ENDCHAR
STARTCHAR 006C
ENCODING 108
SWIDTH 254 0
DWIDTH 6 0
BBX 2 17 2 0
BITMAP
C0
C0
C0
C0
C0
C0
C0
C0
C0
C0
C0
C0
C0
C0
C0
C0
C0
ENDCHAR
STARTCHAR 006D
ENCODING 109
SWIDTH 847 0
DWIDTH 20 0
BBX 17 13 2 0
BITMAP
DE1E00
FF7F00
E3C380
C1C180
C18180
C18180
C18180
C18180
C18180
C18180
C18180
C18180
C18180
ENDCHAR
STARTCHAR 006E
ENCODING 110
SWIDTH 592 0
DWIDTH 14 0
BBX 11 13 2 0
BITMAP
DF00
FF80
E1C0
C0C0
C0E0
C060
C060
C060
C060
C060
C060
C060
C060
ENDCHAR
STARTCHAR 006F
ENCODING 111
SWIDTH 592 0
DWIDTH 14 0
BBX 12 13 1 0
BITMAP
1F80
3FC0
70E0
E070
C030
C030
C030
C030
C030
E070
70E0
3FC0
1F80
ENDCHAR
STARTCHAR 0070
ENCODING 112
SWIDTH 592 0
DWIDTH 14 0
BBX 11 18 2 -5
BITMAP
DF00
FF80
E1C0
C0E0
C060
C060
C060
C060
C060
C0E0
E1C0
FF80
DF00
C000
C000
C000
C000
C000
ENDCHAR
STARTCHAR 0071
ENCODING 113
SWIDTH 592 0
DWIDTH 14 0
BBX 12 18 1 -5
BITMAP
1F30
3FF0
70F0
E070
C070
C030
C030
C030
C070
E070
70F0
3FF0
1F70
0070
0070
0070
0070
0070
ENDCHAR
STARTCHAR 0072
ENCODING 114
SWIDTH 381 0
DWIDTH 9 0
BBX 6 13 2 0
BITMAP
DC
FC
E0
C0
C0
C0
C0
C0
C0
C0
C0
C0
C0
ENDCHAR
STARTCHAR 0073
ENCODING 115
SWIDTH 550 0
DWIDTH 13 0
BBX 11 13 1 0
BITMAP
1F00
7F80
61C0
C0C0
E000
7C00
1F80
03C0
00E0
C0E0
E0C0
7FC0
1F00
ENDCHAR
STARTCHAR 0074
ENCODING 116
SWIDTH 423 0
DWIDTH 10 0
BBX 9 17 0 0
BITMAP
1800
1800
1800
1800
FF80
FF80
1800
1800
1800
1800
1800
1800
1800
1800
1800
1F80
0780
ENDCHAR
STARTCHAR 0075
ENCODING 117
SWIDTH 592 0
DWIDTH 14 0
BBX 12 13 1 0
BITMAP
E070
E070
E070
E070
E070
E070
E070
E070
E070
6070
70F0
3FB0
1F30
ENDCHAR
STARTCHAR 0076
ENCODING 118
SWIDTH 508 0
DWIDTH 12 0
BBX 11 13 1 0
BITMAP
C060
C0C0
C0C0
60C0
6180
7180
3380
3300
3B00
1F00
1E00
0E00
0C00
ENDCHAR
STARTCHAR 0077
ENCODING 119
SWIDTH 762 0
DWIDTH 18 0
BBX 17 13 1 0
BITMAP
C18180
C1C300
C1C300
63C300
634700
626600
766600
362600
363C00
3C3C00
1C3C00
1C1800
181800
ENDCHAR
STARTCHAR 0078
ENCODING 120
SWIDTH 550 0
DWIDTH 13 0
BBX 11 13 1 0
BITMAP
C0E0
E0C0
7180
3380
1B00
1E00
0E00
1E00
1B00
3380
71C0
E0C0
C060
ENDCHAR
STARTCHAR 0079
ENCODING 121
SWIDTH 550 0
DWIDTH 13 0
BBX 11 18 1 -5
BITMAP
C060
C060
E0C0
60C0
60C0
3180
3180
3B80
1B00
1B00
0E00
0E00
0E00
0C00
0C00
0C00
1800
1800
ENDCHAR
STARTCHAR 007A
ENCODING 122
SWIDTH 550 0
DWIDTH 13 0
BBX 11 13 1 0
BITMAP
FFE0
FFC0
0180
0300
0700
0600
0C00
1800
3800
3000
6000
FFC0
FFC0
ENDCHAR
STARTCHAR 007B
ENCODING 123
SWIDTH 423 0
DWIDTH 10 0
BBX 6 26 3 -5
BITMAP
1C
3C
30
30
30
30
30
30
30
30
30
60
E0
E0
60
30
30
30
30
30
30
30
30
30
3C
1C
ENDCHAR
STARTCHAR 007C
ENCODING 124
SWIDTH 254 0
DWIDTH 6 0
BBX 2 17 2 0
BITMAP
C0
C0
C0
C0
C0
C0
C0
C0
C0
C0
C0
C0
C0
C0
C0
C0
C0
ENDCHAR
STARTCHAR 007D
ENCODING 125
SWIDTH 423 0
DWIDTH 10 0
BBX 6 26 1 -5
BITMAP
E0
F0
30
30
30
30
30
30
30
30
30
18
1C
1C
18
30
30
30
30
30
30
30
30
30
F0
E0
ENDCHAR
STARTCHAR 007E
ENCODING 126
SWIDTH 677 0
DWIDTH 16 0
BBX 10 4 3 5
BITMAP
F8C0
FEC0
CFC0
C380
ENDCHAR
STARTCHAR 00A0
ENCODING 160
SWIDTH 211 0
DWIDTH 5 0
BBX 0 0 0 0
BITMAP
ENDCHAR
STARTCHAR 00A1
ENCODING 161
SWIDTH 338 0
DWIDTH 8 0
BBX 2 17 3 -4
BITMAP
C0
C0
00
00
C0
C0
C0
C0
C0
C0
C0
C0
C0
C0
C0
C0
C0
ENDCHAR
STARTCHAR 00A2
ENCODING 162
SWIDTH 550 0
DWIDTH 13 0
BBX 11 18 1 -1
BITMAP
0600
0600
0F00
3FC0
70E0
6060
E000
C000
C000
C000
C000
E040
6060
7DE0
3FC0
0600
0600
0600
ENDCHAR
STARTCHAR 00A3
ENCODING 163
SWIDTH 550 0
DWIDTH 13 0
BBX 11 17 1 0
BITMAP
0780
0FC0
1CE0
1860
3820
3800
3800
3800
FF80
FF80
3800
3800
3800
3800
3800
FFE0
FFE0
ENDCHAR
STARTCHAR 00A4
ENCODING 164
SWIDTH 635 0
DWIDTH 15 0
BBX 13 13 1 2
BITMAP
C798
FFF8
7870
6030
6018
4018
C018
4018
6018
6030
7870
FFF8
C798
ENDCHAR
STARTCHAR 00A5
ENCODING 165
SWIDTH 592 0
DWIDTH 14 0
BBX 13 17 0 0
BITMAP
E018
6038
7030
3070
1860
1CC0
0DC0
0F80
0780
3FE0
3FE0
0300
0300
3FE0
3FE0
0300
0300
ENDCHAR
STARTCHAR 00A6
ENCODING 166
SWIDTH 254 0
DWIDTH 6 0
BBX 2 21 2 -4
BITMAP
C0
C0
C0
C0
C0
C0
C0
C0
C0
00
00
00
C0
C0
C0
C0
C0
C0
C0
C0
C0
ENDCHAR
STARTCHAR 00A7
ENCODING 167
SWIDTH 550 0
DWIDTH 13 0
BBX 11 20 1 -4
BITMAP
1E00
7F80
6180
E1C0
E000
7000
3F00
7FC0
E1C0
C0E0
C0E0
70C0
3FC0
0F80
01C0
00C0
E0C0
71C0
3F80
1F00
ENDCHAR
STARTCHAR 00A8
ENCODING 168
SWIDTH 508 0
DWIDTH 12 0
BBX 7 2 3 19
BITMAP
CE
CE
ENDCHAR
STARTCHAR 00A9
ENCODING 169
SWIDTH 847 0
DWIDTH 20 0
BBX 18 18 1 -1
BITMAP
03F000
0FFC00
3C1E00
300700
61E380
E3F180
C619C0
C400C0
CC00C0
CC00C0
C400C0
C619C0
E7F180
61E380
300700
3C1E00
0FFC00
03F000
ENDCHAR
STARTCHAR 00AA
ENCODING 170
SWIDTH 296 0
DWIDTH 7 0
BBX 6 7 1 6
BITMAP
78
C8
0C
7C
8C
DC
7C
ENDCHAR
STARTCHAR 00AB
ENCODING 171
SWIDTH 550 0
DWIDTH 13 0
BBX 9 10 2 1
BITMAP
1880
1980
3300
6600
CC00
C600
6600
3300
1980
0880
ENDCHAR
STARTCHAR 00AC
ENCODING 172
SWIDTH 592 0
DWIDTH 14 0
BBX 12 5 1 4
BITMAP
FFF0
FFF0
0030
0030
0030
ENDCHAR
STARTCHAR 00AD
ENCODING 173
SWIDTH 423 0
DWIDTH 10 0
BBX 8 2 1 6
BITMAP
FF
FF
ENDCHAR
STARTCHAR 00AE
ENCODING 174
SWIDTH 635 0
DWIDTH 15 0
BBX 11 13 2 6
BITMAP
0400
3F80
71C0
C060
CE60
8920
8E20
8A20
CB60
C060
71C0
3F80
0400
ENDCHAR
STARTCHAR 00AF
ENCODING 175
SWIDTH 508 0
DWIDTH 12 0
BBX 6 2 3 20
BITMAP
FC
FC
ENDCHAR
STARTCHAR 00B0
ENCODING 176
SWIDTH 465 0
DWIDTH 11 0
BBX 8 8 1 9
BITMAP
3C
7E
C3
C3
C3
C3
7E
3C
ENDCHAR
STARTCHAR 00B1
ENCODING 177
SWIDTH 592 0
DWIDTH 14 0
BBX 12 11 1 2
BITMAP
0600
0600
0600
FFF0
FFF0
0600
0600
0600
0000
FFF0
FFF0
ENDCHAR
STARTCHAR 00B2
ENCODING 178
SWIDTH 423 0
DWIDTH 10 0
BBX 7 11 1 6
BITMAP
3C
6E
C2
C2
02
06
0C
18
70
E0
FE
ENDCHAR
STARTCHAR 00B3
ENCODING 179
SWIDTH 381 0
DWIDTH 9 0
BBX 7 11 1 6
BITMAP
FE
06
0C
18
38
2C
06
06
C6
EC
78
ENDCHAR
STARTCHAR 00B4
ENCODING 180
SWIDTH 508 0
DWIDTH 12 0
BBX 3 4 5 19
BITMAP
60
40
C0
C0
ENDCHAR
STARTCHAR 00B5
ENCODING 181
SWIDTH 635 0
DWIDTH 15 0
BBX 11 18 2 -5
BITMAP
C060
C060
C060
C060
C060
C060
C060
C060
C060
C0E0
E1E0
FFE0
DE60
C000
C000
C000
C000
C000
ENDCHAR
STARTCHAR 00B6
ENCODING 182
SWIDTH 677 0
DWIDTH 16 0
BBX 12 20 2 -3
BITMAP
3F30
7F30
FF30
FF30
FF30
FF30
FF30
FF30
FF30
7F30
1F30
0330
0330
0330
0330
0330
0330
0330
0330
0330
ENDCHAR
STARTCHAR 00B7
ENCODING 183
SWIDTH 254 0
DWIDTH 6 0
BBX 3 3 1 6
BITMAP
60
E0
60
ENDCHAR
STARTCHAR 00B8
ENCODING 184
SWIDTH 423 0
DWIDTH 10 0
BBX 4 6 3 -6
BITMAP
60
60
30
30
E0
40
ENDCHAR
STARTCHAR 00B9
ENCODING 185
SWIDTH 338 0
DWIDTH 8 0
BBX 4 11 1 6
BITMAP
30
F0
B0
30
30
30
30
30
30
30
30
ENDCHAR
STARTCHAR 00BA
ENCODING 186
SWIDTH 338 0
DWIDTH 8 0
BBX 6 7 1 6
BITMAP
78
CC
84
84
84
CC
78
ENDCHAR
STARTCHAR 00BB
ENCODING 187
SWIDTH 550 0
DWIDTH 13 0
BBX 9 10 2 1
BITMAP
8C00
C600
6600
3300
1980
3180
3300
6600
CC00
8800
ENDCHAR
STARTCHAR 00BC
ENCODING 188
SWIDTH 974 0
DWIDTH 23 0
BBX 20 17 1 0
BITMAP
300200
F00300
B00600
300C00
301C00
301800
303080
306180
30E100
30C300
318200
030660
060460
060C60
0C0FF0
180060
100060
ENDCHAR
STARTCHAR 00BD
ENCODING 189
SWIDTH 974 0
DWIDTH 23 0
BBX 21 17 1 0
BITMAP
300300
F00300
B00600
300C00
301C00
301800
3031E0
3063F0
30E610
30C618
318010
030030
060060
0600C0
0C0180
180300
1007F8
ENDCHAR
STARTCHAR 00BE
ENCODING 190
SWIDTH 1016 0
DWIDTH 24 0
BBX 21 17 1 0
BITMAP
FE0080
060180
0C0180
180300
380600
2C0C00
061C60
061840
C630C0
EC6080
78E180
00C110
018310
030210
0703F8
060010
040010
ENDCHAR
STARTCHAR 00BF
ENCODING 191
SWIDTH 550 0
DWIDTH 13 0
BBX 10 18 1 -5
BITMAP
0E00
0E00
0E00
0000
0000
0E00
0E00
0C00
1C00
3800
7000
E000
C000
C0C0
E0C0
61C0
7F80
1F00
ENDCHAR
STARTCHAR 00C0
ENCODING 192
SWIDTH 635 0
DWIDTH 15 0
BBX 14 23 1 0
BITMAP
0C00
0400
0600
0600
0000
0000
0700
0780
0F80
0D80
0DC0
1CC0
18C0
18E0
3860
3060
3070
7FF0
7FF0
6038
E018
C018
C01C
ENDCHAR
STARTCHAR 00C1
ENCODING 193
SWIDTH 635 0
DWIDTH 15 0
BBX 14 23 1 0
BITMAP
0180
0180
0100
0300
0000
0000
0700
0780
0D80
0D80
0DC0
1CC0
18C0
18E0
3060
3060
3070
7FF0
7FF0
6038
C018
C018
C01C
ENDCHAR
STARTCHAR 00C2
ENCODING 194
SWIDTH 635 0
DWIDTH 15 0
BBX 14 22 1 0
BITMAP
0700
0D80
18C0
0000
0000
0700
0780
0D80
0D80
0DC0
1CC0
18C0
18E0
3060
3060
3070
7FF0
7FF0
6038
C018
C018
C01C
ENDCHAR
STARTCHAR 00C3
ENCODING 195
SWIDTH 635 0
DWIDTH 15 0
BBX 14 23 1 0
BITMAP
0800
1E40
13C0
0080
0000
0000
0700
0780
0D80
0D80
0DC0
1CC0
18C0
18E0
3060
3060
3070
7FF0
7FF0
6038
C018
C018
C01C
ENDCHAR
STARTCHAR 00C4
ENCODING 196
SWIDTH 635 0
DWIDTH 15 0
BBX 14 21 1 0
BITMAP
18C0
18C0
0000
0000
0700
0780
0D80
0D80
0DC0
1CC0
18C0
18E0
3060
3060
3070
7FF0
7FF0
6038
C018
C018
C01C
ENDCHAR
STARTCHAR 00C5
ENCODING 197
SWIDTH 635 0
DWIDTH 15 0
BBX 14 24 1 0
BITMAP
0700
0F80
0880
0C80
0780
0000
0000
0700
0780
0D80
0D80
0DC0
1CC0
18C0
18E0
3060
3060
3070
7FF0
7FF0
6038
C018
C018
C01C
ENDCHAR
STARTCHAR 00C6
ENCODING 198
SWIDTH 931 0
DWIDTH 22 0
BBX 20 17 1 0
BITMAP
07FFF0
07FFF0
0C6000
0C6000
0C6000
1C6000
186000
187FC0
307FC0
306000
306000
7FE000
7FE000
606000
C06000
C07FF0
C07FF0
ENDCHAR
STARTCHAR 00C7
ENCODING 199
SWIDTH 720 0
DWIDTH 17 0
BBX 15 23 1 -6
BITMAP
07E0
1FF8
383C
700C
E00E
C006
C000
C000
C000
C000
C000
C006
E00E
700C
383C
1FF8
0FE0
0100
0180
00C0
00C0
0380
0100
ENDCHAR
STARTCHAR 00C8
ENCODING 200
SWIDTH 592 0
DWIDTH 14 0
BBX 10 23 2 0
BITMAP
1800
1800
0C00
0C00
0000
0000
FFC0
FFC0
C000
C000
C000
C000
C000
FF80
FF80
C000
C000
C000
C000
C000
C000
FFC0
FFC0
ENDCHAR
STARTCHAR 00C9
ENCODING 201
SWIDTH 592 0
DWIDTH 14 0
BBX 10 23 2 0
BITMAP
0300
0600
0600
0400
0000
0000
FFC0
FFC0
C000
C000
C000
C000
C000
FF80
FF80
C000
C000
C000
C000
C000
C000
FFC0
FFC0
ENDCHAR
STARTCHAR 00CA
ENCODING 202
SWIDTH 592 0
DWIDTH 14 0
BBX 10 22 2 0
BITMAP
1E00
3600
7300
0000
0000
FFC0
FFC0
C000
C000
C000
C000
C000
FF80
FF80
C000
C000
C000
C000
C000
C000
FFC0
FFC0
ENDCHAR
STARTCHAR 00CB
ENCODING 203
SWIDTH 592 0
DWIDTH 14 0
BBX 10 21 2 0
BITMAP
7300
7300
0000
0000
FFC0
FFC0
C000
C000
C000
C000
C000
FF80
FF80
C000
C000
C000
C000
C000
C000
FFC0
FFC0
ENDCHAR
STARTCHAR 00CC
ENCODING 204
SWIDTH 254 0
DWIDTH 6 0
BBX 3 23 1 0
BITMAP
80
C0
C0
60
00
00
60
60
60
60
60
60
60
60
60
60
60
60
60
60
60
60
60
ENDCHAR
STARTCHAR 00CD
ENCODING 205
SWIDTH 254 0
DWIDTH 6 0
BBX 3 23 2 0
BITMAP
60
60
40
C0
00
00
C0
C0
C0
C0
C0
C0
C0
C0
C0
C0
C0
C0
C0
C0
C0
C0
C0
ENDCHAR
STARTCHAR 00CE
ENCODING 206
SWIDTH 254 0
DWIDTH 6 0
BBX 6 22 0 0
BITMAP
78
D8
CC
00
00
30
30
30
30
30
30
30
30
30
30
30
30
30
30
30
30
30
ENDCHAR
STARTCHAR 00CF
ENCODING 207
SWIDTH 254 0
DWIDTH 6 0
BBX 6 21 0 0
BITMAP
CC
CC
00
00
30
30
30
30
30
30
30
30
30
30
30
30
30
30
30
30
30
ENDCHAR
STARTCHAR 00D0
ENCODING 208
SWIDTH 677 0
DWIDTH 16 0
BBX 15 17 0 0
BITMAP
3FC0
3FF0
3038
301C
300C
300E
3006
FF06
FF06
3006
300E
300E
300C
301C
3038
3FF0
3FE0
ENDCHAR
STARTCHAR 00D1
ENCODING 209
SWIDTH 677 0
DWIDTH 16 0
BBX 13 22 2 0
BITMAP
1C40
1FC0
11C0
0000
0000
C018
E018
E018
F018
F818
D818
CC18
CE18
C618
C318
C398
C198
C0D8
C0F8
C078
C038
C038
ENDCHAR
STARTCHAR 00D2
ENCODING 210
SWIDTH 720 0
DWIDTH 17 0
BBX 16 22 1 0
BITMAP
0200
0300
0300
0000
0000
07E0
1FF8
383C
700C
E00E
C006
C006
C007
C007
C007
C006
C006
E00E
700C
383C
1FF8
07E0
ENDCHAR
STARTCHAR 00D3
ENCODING 211
SWIDTH 720 0
DWIDTH 17 0
BBX 16 22 1 0
BITMAP
00C0
0080
0180
0000
0000
07E0
1FF8
383C
700C
E00E
C006
C006
C007
C007
C007
C006
C006
E00E
700C
383C
1FF8
07E0
ENDCHAR
STARTCHAR 00D4
ENCODING 212
SWIDTH 720 0
DWIDTH 17 0
BBX 16 22 1 0
BITMAP
0380
06C0
0660
0800
0000
07E0
1FF8
383C
700C
E00E
C006
C006
C007
C007
C007
C006
C006
E00E
700C
383C
1FF8
07E0
ENDCHAR
STARTCHAR 00D5
ENCODING 213
SWIDTH 720 0
DWIDTH 17 0
BBX 16 22 1 0
BITMAP
0400
0F30
0DE0
0040
0000
07E0
1FF8
383C
700C
E00E
C006
C006
C007
C007
C007
C006
C006
E00E
700C
383C
1FF8
07E0
ENDCHAR
STARTCHAR 00D6
ENCODING 214
SWIDTH 720 0
DWIDTH 17 0
BBX 16 21 1 0
BITMAP
0C60
0C60
0000
0000
07E0
1FF8
383C
700C
E00E
C006
C006
C007
C007
C007
C006
C006
E00E
700C
383C
1FF8
07E0
ENDCHAR
STARTCHAR 00D7
ENCODING 215
SWIDTH 508 0
DWIDTH 12 0
BBX 8 9 2 4
BITMAP
83
C7
66
3C
18
3C
66
C3
80
ENDCHAR
STARTCHAR 00D8
ENCODING 216
SWIDTH 720 0
DWIDTH 17 0
BBX 16 17 1 0
BITMAP
07E2
1FFF
383E
701C
E03E
C076
C0E6
C1C7
C387
C707
C606
CC06
F80E
700C
783C
FFF8
4FE0
ENDCHAR
STARTCHAR 00D9
ENCODING 217
SWIDTH 720 0
DWIDTH 17 0
BBX 13 23 2 0
BITMAP
0C00
0400
0600
0200
0000
0000
C018
C018
C018
C018
C018
C018
C018
C018
C018
C018
C018
C018
C038
E030
70F0
3FE0
1F80
ENDCHAR
STARTCHAR 00DA
ENCODING 218
SWIDTH 720 0
DWIDTH 17 0
BBX 13 23 2 0
BITMAP
0100
0300
0300
0200
0000
0000
C018
C018
C018
C018
C018
C018
C018
C018
C018
C018
C018
C018
C038
E030
70F0
3FE0
1F80
ENDCHAR
STARTCHAR 00DB
ENCODING 219
SWIDTH 720 0
DWIDTH 17 0
BBX 13 22 2 0
BITMAP
0700
0D80
18C0
0000
0000
C018
C018
C018
C018
C018
C018
C018
C018
C018
C018
C018
C018
C038
E030
70F0
3FE0
1F80
ENDCHAR
STARTCHAR 00DC
ENCODING 220
SWIDTH 720 0
DWIDTH 17 0
BBX 13 21 2 0
BITMAP
18C0
18C0
0000
0000
C018
C018
C018
C018
C018
C018
C018
C018
C018
C018
C018
C018
C038
E030
70F0
3FE0
1F80
ENDCHAR
STARTCHAR 00DD
ENCODING 221
SWIDTH 592 0
DWIDTH 14 0
BBX 13 23 0 0
BITMAP
0180
0100
0300
0300
0000
0000
E018
6038
7030
3070
1860
1CC0
0DC0
0F80
0780
0700
0300
0300
0300
0300
0300
0300
0300
ENDCHAR
STARTCHAR 00DE
ENCODING 222
SWIDTH 592 0
DWIDTH 14 0
BBX 12 17 2 0
BITMAP
C000
C000
C000
FF00
FFC0
C0E0
C060
C070
C070
C070
C060
C0E0
FFC0
FF00
C000
C000
C000
ENDCHAR
STARTCHAR 00DF
ENCODING 223
SWIDTH 592 0
DWIDTH 14 0
BBX 11 17 2 0
BITMAP
3E00
7F00
E380
C180
C1C0
C180
C380
C700
C780
C1C0
C0E0
C060
C060
C0E0
C1C0
DFC0
DF00
ENDCHAR
STARTCHAR 00E0
ENCODING 224
SWIDTH 550 0
DWIDTH 13 0
BBX 11 19 1 0
BITMAP
0800
0C00
0C00
0400
0000
0000
1F00
7FC0
70C0
E060
0060
0FE0
7FE0
F060
C060
C0E0
C1E0
7F60
3E60
ENDCHAR
STARTCHAR 00E1
ENCODING 225
SWIDTH 550 0
DWIDTH 13 0
BBX 11 19 1 0
BITMAP
0300
0300
0200
0600
0000
0000
1F00
7FC0
70C0
E060
0060
0FE0
7FE0
F060
C060
C0E0
C1E0
7F60
3E60
ENDCHAR
STARTCHAR 00E2
ENCODING 226
SWIDTH 550 0
DWIDTH 13 0
BBX 11 18 1 0
BITMAP
0E00
0F00
1980
2000
0000
1F00
7FC0
70C0
E060
0060
0FE0
7FE0
F060
C060
C0E0
C1E0
7F60
3E60
ENDCHAR
STARTCHAR 00E3
ENCODING 227
SWIDTH 550 0
DWIDTH 13 0
BBX 11 18 1 0
BITMAP
0800
3EC0
37C0
0100
0000
1F00
7FC0
70C0
E060
0060
0FE0
7FE0
F060
C060
C0E0
C1E0
7F60
3E60
ENDCHAR
STARTCHAR 00E4
ENCODING 228
SWIDTH 550 0
DWIDTH 13 0
BBX 11 17 1 0
BITMAP
1980
1980
0000
0000
1F00
7FC0
70C0
E060
0060
0FE0
7FE0
F060
C060
C0E0
C1E0
7F60
3E60
ENDCHAR
STARTCHAR 00E5
ENCODING 229
SWIDTH 550 0
DWIDTH 13 0
BBX 11 19 1 0
BITMAP
0F00
1900
1980
1F00
0E00
0000
1F00
7FC0
70C0
E060
0060
0FE0
7FE0
F060
C060
C0E0
C1E0
7F60
3E60
ENDCHAR
STARTCHAR 00E6
ENCODING 230
SWIDTH 931 0
DWIDTH 22 0
BBX 20 13 1 0
BITMAP
1F0F80
3FDFE0
70F860
60F030
006030
03FFF0
3FFFF0
E06000
C06000
C0F030
C1B860
7F9FE0
3E0F80
ENDCHAR
STARTCHAR 00E7
ENCODING 231
SWIDTH 550 0
DWIDTH 13 0
BBX 11 19 1 -6
BITMAP
1F80
3FC0
70E0
E060
C000
C000
C000
C000
C000
E060
70E0
3FC0
1F80
0600
0600
0300
0300
0E00
0400
ENDCHAR
STARTCHAR 00E8
ENCODING 232
SWIDTH 592 0
DWIDTH 14 0
BBX 12 18 1 0
BITMAP
0C00
0400
0600
0000
0000
1F80
3FC0
70E0
E060
C030
FFF0
FFF0
C000
E000
E070
70E0
3FC0
1F80
ENDCHAR
STARTCHAR 00E9
ENCODING 233
SWIDTH 592 0
DWIDTH 14 0
BBX 12 18 1 0
BITMAP
0100
0300
0300
0000
0000
1F80
3FC0
70E0
E060
C030
FFF0
FFF0
C000
E000
E070
70E0
3FC0
1F80
ENDCHAR
STARTCHAR 00EA
ENCODING 234
SWIDTH 592 0
DWIDTH 14 0
BBX 12 18 1 0
BITMAP
0600
0F00
1980
0000
0000
1F80
3FC0
70E0
E060
C030
FFF0
FFF0
C000
E000
E070
70E0
3FC0
1F80
ENDCHAR
STARTCHAR 00EB
ENCODING 235
SWIDTH 592 0
DWIDTH 14 0
BBX 12 17 1 0
BITMAP
1980
1980
0000
0000
1F80
3FC0
70E0
E060
C030
FFF0
FFF0
C000
E000
E070
70E0
3FC0
1F80
ENDCHAR
STARTCHAR 00EC
ENCODING 236
SWIDTH 254 0
DWIDTH 6 0
BBX 3 19 1 0
BITMAP
80
C0
C0
60
00
00
60
60
60
60
60
60
60
60
60
60
60
60
60
ENDCHAR
STARTCHAR 00ED
ENCODING 237
SWIDTH 254 0
DWIDTH 6 0
BBX 3 19 2 0
BITMAP
20
60
40
C0
00
00
C0
C0
C0
C0
C0
C0
C0
C0
C0
C0
C0
C0
C0
ENDCHAR
STARTCHAR 00EE
ENCODING 238
SWIDTH 254 0
DWIDTH 6 0
BBX 6 18 0 0
BITMAP
78
6C
CC
00
00
30
30
30
30
30
30
30
30
30
30
30
30
30
ENDCHAR
STARTCHAR 00EF
ENCODING 239
SWIDTH 254 0
DWIDTH 6 0
BBX 6 17 0 0
BITMAP
CC
CC
00
00
30
30
30
30
30
30
30
30
30
30
30
30
30
ENDCHAR
STARTCHAR 00F0
ENCODING 240
SWIDTH 592 0
DWIDTH 14 0
BBX 12 19 1 0
BITMAP
0080
0EC0
0F80
03C0
06C0
0060
0F20
3FF0
70F0
E070
C070
C030
C030
C030
C070
E060
70E0
3FC0
1F80
ENDCHAR
STARTCHAR 00F1
ENCODING 241
SWIDTH 592 0
DWIDTH 14 0
BBX 11 18 2 0
BITMAP
1000
7D80
6F80
0300
0000
DF00
FF80
E1C0
C0E0
C0E0
C060
C060
C060
C060
C060
C060
C060
C060
ENDCHAR
STARTCHAR 00F2
ENCODING 242
SWIDTH 592 0
DWIDTH 14 0
BBX 12 18 1 0
BITMAP
0C00
0C00
0400
0000
0000
1F80
3FC0
70E0
E070
C030
C030
C030
C030
C030
E070
70E0
3FC0
1F80
ENDCHAR
STARTCHAR 00F3
ENCODING 243
SWIDTH 592 0
DWIDTH 14 0
BBX 12 18 1 0
BITMAP
0300
0300
0200
0000
0000
1F80
3FC0
70E0
E070
C030
C030
C030
C030
C030
E070
70E0
3FC0
1F80
ENDCHAR
STARTCHAR 00F4
ENCODING 244
SWIDTH 592 0
DWIDTH 14 0
BBX 12 18 1 0
BITMAP
0600
0F00
1980
0000
0000
1F80
3FC0
70E0
E070
C030
C030
C030
C030
C030
E070
70E0
3FC0
1F80
ENDCHAR
STARTCHAR 00F5
ENCODING 245
SWIDTH 592 0
DWIDTH 14 0
BBX 12 18 1 0
BITMAP
0800
3EC0
37C0
0180
0000
1F80
3FC0
70E0
E070
C030
C030
C030
C030
C030
E070
70E0
3FC0
1F80
ENDCHAR
STARTCHAR 00F6
ENCODING 246
SWIDTH 592 0
DWIDTH 14 0
BBX 12 17 1 0
BITMAP
1980
1980
0000
0000
1F80
3FC0
70E0
E070
C030
C030
C030
C030
C030
E070
70E0
3FC0
1F80
ENDCHAR
STARTCHAR 00F7
ENCODING 247
SWIDTH 550 0
DWIDTH 13 0
BBX 10 9 1 4
BITMAP
0E00
0E00
0000
0000
FFC0
FFC0
0000
0E00
0E00
ENDCHAR
STARTCHAR 00F8
ENCODING 248
SWIDTH 592 0
DWIDTH 14 0
BBX 13 13 1 0
BITMAP
1F90
3FF8
70F0
E0F0
C1B0
C330
C630
CC30
D830
7070
F0E0
FFC0
9F80
ENDCHAR
STARTCHAR 00F9
ENCODING 249
SWIDTH 592 0
DWIDTH 14 0
BBX 12 19 1 0
BITMAP
0C00
0C00
0400
0600
0000
0000
E070
E070
E070
E070
E070
E070
E070
E070
E070
6070
70F0
3FB0
1F30
ENDCHAR
STARTCHAR 00FA
ENCODING 250
SWIDTH 592 0
DWIDTH 14 0
BBX 12 19 1 0
BITMAP
0300
0300
0200
0600
0000
0000
E070
E070
E070
E070
E070
E070
E070
E070
E070
6070
70F0
3FB0
1F30
ENDCHAR
STARTCHAR 00FB
ENCODING 251
SWIDTH 592 0
DWIDTH 14 0
BBX 12 18 1 0
BITMAP
0F00
1F80
1980
0000
0000
E070
E070
E070
E070
E070
E070
E070
E070
E070
6070
70F0
3FB0
1F30
ENDCHAR
STARTCHAR 00FC
ENCODING 252
SWIDTH 592 0
DWIDTH 14 0
BBX 12 17 1 0
BITMAP
1980
1980
0000
0000
E070
E070
E070
E070
E070
E070
E070
E070
E070
6070
70F0
3FB0
1F30
ENDCHAR
STARTCHAR 00FD
ENCODING 253
SWIDTH 550 0
DWIDTH 13 0
BBX 11 24 1 -5
BITMAP
0300
0200
0600
0400
0000
0000
C060
C060
E0C0
60C0
60C0
3180
3180
3B80
1B00
1B00
0E00
0E00
0E00
0C00
0C00
0C00
1800
1800
ENDCHAR
STARTCHAR 00FE
ENCODING 254
SWIDTH 592 0
DWIDTH 14 0
BBX 11 22 2 -5
BITMAP
C000
C000
C000
C000
DF00
FF80
E1C0
C0E0
C060
C060
C060
C060
C060
C0E0
E1C0
FF80
DF00
C000
C000
C000
C000
C000
ENDCHAR
STARTCHAR 00FF
ENCODING 255
SWIDTH 550 0
DWIDTH 13 0
BBX 11 22 1 -5
BITMAP
3180
3180
0000
0000
C060
C060
E0C0
60C0
60C0
3180
3180
3B80
1B00
1B00
0E00
0E00
0E00
0C00
0C00
0C00
1800
1800
ENDCHAR
ENDFONT
